<svg width="200" height="200" viewBox="0 0 200 200" fill="none" xmlns="http://www.w3.org/2000/svg">
  <!-- Background Circle -->
  <circle cx="100" cy="100" r="90" fill="#4F46E5"/>
  
  <!-- ER Monogram -->
  <g transform="translate(100, 100)">
    <!-- E Letter -->
    <path d="M -45 -30 L -15 -30 L -15 -20 L -35 -20 L -35 -5 L -17 -5 L -17 5 L -35 5 L -35 20 L -15 20 L -15 30 L -45 30 Z" fill="white"/>
    
    <!-- R Letter -->
    <path d="M 5 -30 L 35 -30 Q 45 -30 45 -20 Q 45 -12 40 -8 L 45 30 L 33 30 L 28 -5 L 15 -5 L 15 30 L 5 30 Z M 15 -20 L 15 -15 L 30 -15 Q 35 -15 35 -20 Q 35 -20 30 -20 Z" fill="white"/>
  </g>
  
  <!-- Optional: Subtitle -->
  <text x="100" y="175" font-family="Inter, sans-serif" font-size="12" font-weight="500" text-anchor="middle" fill="white" letter-spacing="2">FINANCIAL INTELLIGENCE</text>
</svg>
